<mxfile host="app.diagrams.net" agent="Mozilla/5.0 (Windows NT 10.0; Win64; x64) AppleWebKit/537.36 (KHTML, like Gecko) Chrome/140.0.0.0 Safari/537.36" version="28.2.4">
  <diagram name="第 1 页" id="CdxXABLwSfEg8H9c7C48">
    <mxGraphModel dx="2269" dy="1216" grid="1" gridSize="10" guides="1" tooltips="1" connect="1" arrows="1" fold="1" page="1" pageScale="1" pageWidth="1600" pageHeight="1200" math="0" shadow="0">
      <root>
        <mxCell id="0" />
        <mxCell id="1" parent="0" />
        <mxCell id="DmRTC4GkbKK05Fmgks-W-3" value="参与方-1" style="rounded=1;whiteSpace=wrap;html=1;" vertex="1" parent="1">
          <mxGeometry x="70" y="570" width="120" height="60" as="geometry" />
        </mxCell>
        <mxCell id="DmRTC4GkbKK05Fmgks-W-4" value="参与方-1" style="rounded=1;whiteSpace=wrap;html=1;" vertex="1" parent="1">
          <mxGeometry x="1020" y="580" width="120" height="60" as="geometry" />
        </mxCell>
        <mxCell id="DmRTC4GkbKK05Fmgks-W-5" value="参与方-1" style="rounded=1;whiteSpace=wrap;html=1;" vertex="1" parent="1">
          <mxGeometry x="680" y="580" width="120" height="60" as="geometry" />
        </mxCell>
        <mxCell id="DmRTC4GkbKK05Fmgks-W-6" value="&lt;font style=&quot;font-size: 16px;&quot;&gt;参与方-1&lt;/font&gt;" style="rounded=1;whiteSpace=wrap;html=1;" vertex="1" parent="1">
          <mxGeometry x="390" y="580" width="120" height="60" as="geometry" />
        </mxCell>
        <mxCell id="DmRTC4GkbKK05Fmgks-W-17" style="edgeStyle=orthogonalEdgeStyle;rounded=0;orthogonalLoop=1;jettySize=auto;html=1;exitX=0.5;exitY=1;exitDx=0;exitDy=0;" edge="1" parent="1" source="DmRTC4GkbKK05Fmgks-W-7" target="DmRTC4GkbKK05Fmgks-W-12">
          <mxGeometry relative="1" as="geometry" />
        </mxCell>
        <mxCell id="DmRTC4GkbKK05Fmgks-W-7" value="&lt;font style=&quot;font-size: 16px;&quot;&gt;pk-1&lt;/font&gt;&lt;div&gt;&lt;font style=&quot;font-size: 16px;&quot;&gt;（1的公钥）&lt;/font&gt;&lt;/div&gt;" style="ellipse;whiteSpace=wrap;html=1;" vertex="1" parent="1">
          <mxGeometry x="70" y="740" width="120" height="80" as="geometry" />
        </mxCell>
        <mxCell id="DmRTC4GkbKK05Fmgks-W-20" style="edgeStyle=orthogonalEdgeStyle;rounded=0;orthogonalLoop=1;jettySize=auto;html=1;exitX=0.5;exitY=1;exitDx=0;exitDy=0;" edge="1" parent="1" source="DmRTC4GkbKK05Fmgks-W-8">
          <mxGeometry relative="1" as="geometry">
            <mxPoint x="600" y="940" as="targetPoint" />
          </mxGeometry>
        </mxCell>
        <mxCell id="DmRTC4GkbKK05Fmgks-W-8" value="pk-1" style="ellipse;whiteSpace=wrap;html=1;" vertex="1" parent="1">
          <mxGeometry x="1020" y="740" width="120" height="80" as="geometry" />
        </mxCell>
        <mxCell id="DmRTC4GkbKK05Fmgks-W-19" style="edgeStyle=orthogonalEdgeStyle;rounded=0;orthogonalLoop=1;jettySize=auto;html=1;exitX=0.5;exitY=1;exitDx=0;exitDy=0;" edge="1" parent="1" source="DmRTC4GkbKK05Fmgks-W-9">
          <mxGeometry relative="1" as="geometry">
            <mxPoint x="600" y="940" as="targetPoint" />
          </mxGeometry>
        </mxCell>
        <mxCell id="DmRTC4GkbKK05Fmgks-W-9" value="pk-1" style="ellipse;whiteSpace=wrap;html=1;" vertex="1" parent="1">
          <mxGeometry x="680" y="740" width="120" height="80" as="geometry" />
        </mxCell>
        <mxCell id="DmRTC4GkbKK05Fmgks-W-18" style="edgeStyle=orthogonalEdgeStyle;rounded=0;orthogonalLoop=1;jettySize=auto;html=1;exitX=0.5;exitY=1;exitDx=0;exitDy=0;entryX=0.5;entryY=0;entryDx=0;entryDy=0;" edge="1" parent="1" source="DmRTC4GkbKK05Fmgks-W-10" target="DmRTC4GkbKK05Fmgks-W-12">
          <mxGeometry relative="1" as="geometry" />
        </mxCell>
        <mxCell id="DmRTC4GkbKK05Fmgks-W-10" value="pk-1" style="ellipse;whiteSpace=wrap;html=1;" vertex="1" parent="1">
          <mxGeometry x="390" y="740" width="120" height="80" as="geometry" />
        </mxCell>
        <mxCell id="DmRTC4GkbKK05Fmgks-W-11" value="" style="endArrow=none;dashed=1;html=1;dashPattern=1 3;strokeWidth=2;rounded=0;" edge="1" parent="1">
          <mxGeometry width="50" height="50" relative="1" as="geometry">
            <mxPoint x="150" y="150" as="sourcePoint" />
            <mxPoint x="200" y="100" as="targetPoint" />
          </mxGeometry>
        </mxCell>
        <mxCell id="DmRTC4GkbKK05Fmgks-W-12" value="&lt;font style=&quot;font-size: 18px;&quot;&gt;apk 聚合公钥匙&lt;/font&gt;&lt;div&gt;&lt;font style=&quot;font-size: 18px;&quot;&gt;（完整聚合公钥）&lt;/font&gt;&lt;/div&gt;" style="ellipse;whiteSpace=wrap;html=1;aspect=fixed;fillColor=#dae8fc;strokeColor=#6c8ebf;" vertex="1" parent="1">
          <mxGeometry x="510" y="940" width="180" height="180" as="geometry" />
        </mxCell>
        <mxCell id="DmRTC4GkbKK05Fmgks-W-13" value="pk-1" style="ellipse;whiteSpace=wrap;html=1;fillColor=#0050ef;strokeColor=#001DBC;fontColor=#ffffff;" vertex="1" parent="1">
          <mxGeometry x="70" y="410" width="120" height="80" as="geometry" />
        </mxCell>
        <mxCell id="DmRTC4GkbKK05Fmgks-W-14" value="pk-1" style="ellipse;whiteSpace=wrap;html=1;fillColor=#0050ef;strokeColor=#001DBC;fontColor=#ffffff;" vertex="1" parent="1">
          <mxGeometry x="1020" y="410" width="120" height="80" as="geometry" />
        </mxCell>
        <mxCell id="DmRTC4GkbKK05Fmgks-W-15" value="pk-1" style="ellipse;whiteSpace=wrap;html=1;fillColor=#0050ef;strokeColor=#001DBC;fontColor=#ffffff;" vertex="1" parent="1">
          <mxGeometry x="680" y="410" width="120" height="80" as="geometry" />
        </mxCell>
        <mxCell id="DmRTC4GkbKK05Fmgks-W-16" value="pk-1" style="ellipse;whiteSpace=wrap;html=1;fillColor=#0050ef;strokeColor=#001DBC;fontColor=#ffffff;" vertex="1" parent="1">
          <mxGeometry x="390" y="410" width="120" height="80" as="geometry" />
        </mxCell>
      </root>
    </mxGraphModel>
  </diagram>
</mxfile>
